<?xml version="1.0" standalone="no"?>
<!DOCTYPE svg PUBLIC "-//W3C//DTD SVG 20010904//EN"
 "http://www.w3.org/TR/2001/REC-SVG-20010904/DTD/svg10.dtd">
<svg version="1.0" xmlns="http://www.w3.org/2000/svg"
 width="300.000000pt" height="100.000000pt" viewBox="0 0 300.000000 100.000000"
 preserveAspectRatio="xMidYMid meet">

<g transform="translate(0.000000,100.000000) scale(0.100000,-0.100000)"
fill="#000000" stroke="none">
<path d="M1168 885 c-5 -23 -2 -25 31 -25 l35 0 -51 -52 c-28 -29 -53 -63 -56
-75 -5 -22 -3 -23 79 -23 46 0 84 4 84 9 0 5 3 16 6 25 4 11 -3 15 -35 18
l-40 3 48 55 c75 87 75 90 -18 90 -76 0 -79 -1 -83 -25z"/>
<path d="M2653 720 c-22 -13 -37 -34 -50 -69 -9 -27 -25 -52 -34 -54 -21 -6
-32 -67 -12 -67 17 0 17 1 -12 -134 -14 -64 -25 -120 -25 -126 0 -5 20 -10 45
-10 38 0 45 3 50 23 3 12 15 72 28 132 21 102 25 110 47 114 29 4 40 17 40 49
0 16 -6 22 -21 22 -16 0 -20 5 -17 28 2 21 8 27 28 27 26 0 49 27 50 56 0 34
-68 39 -117 9z"/>
<path d="M1705 721 c-101 -25 -165 -103 -165 -201 0 -93 49 -150 129 -150 51
0 116 26 144 58 18 19 17 20 -12 41 l-29 21 -36 -21 c-41 -24 -69 -19 -92 17
-51 77 77 208 130 132 l15 -21 41 27 c22 14 40 30 40 34 0 16 -47 53 -81 62
-38 11 -41 11 -84 1z"/>
<path d="M1946 713 c-2 -10 -19 -85 -36 -168 -17 -82 -33 -156 -35 -162 -3 -9
10 -13 44 -13 l48 0 17 80 c12 58 23 84 39 95 17 12 24 12 33 2 10 -9 8 -30
-6 -94 l-18 -83 47 0 48 0 21 103 c27 124 27 122 2 147 -24 24 -54 25 -94 5
-16 -9 -31 -13 -34 -11 -2 3 1 25 7 50 16 65 15 66 -33 66 -34 0 -46 -4 -50
-17z"/>
<path d="M321 568 c-18 -84 -35 -163 -38 -175 -5 -23 -5 -23 121 -23 113 0
126 2 126 18 0 9 3 27 6 40 6 21 4 22 -65 22 -64 0 -71 2 -71 20 0 17 19 113
45 228 5 20 2 22 -43 22 l-48 0 -33 -152z"/>
<path d="M682 623 c-82 -40 -113 -171 -56 -234 22 -24 91 -25 123 -3 22 16 24
16 33 0 6 -10 22 -16 48 -16 43 0 47 8 42 83 -1 15 5 57 13 93 8 36 15 69 15
75 0 12 -87 12 -95 -1 -4 -7 -14 -5 -28 5 -27 19 -54 19 -95 -2z m86 -75 c21
-21 15 -76 -12 -93 -56 -37 -87 32 -38 88 18 20 33 22 50 5z"/>
<path d="M2335 625 c-22 -8 -52 -28 -67 -44 -62 -69 -55 -173 13 -202 41 -16
120 -6 158 20 39 28 39 36 1 50 -24 8 -36 7 -59 -7 -24 -14 -31 -14 -45 -3
-27 22 -19 29 46 36 49 6 68 13 90 35 34 34 35 60 5 95 -28 33 -86 41 -142 20z
m68 -62 c12 -11 -14 -33 -39 -33 -26 0 -30 10 -12 28 13 13 41 16 51 5z"/>
<path d="M986 608 c-9 -37 -8 -38 46 -38 l52 0 -71 -72 c-40 -40 -75 -85 -78
-100 l-7 -28 105 0 c86 0 106 3 111 16 14 37 7 44 -44 44 -27 0 -50 3 -50 7 0
4 29 37 64 73 36 36 68 77 71 93 l7 27 -100 0 c-95 0 -100 -1 -106 -22z"/>
<path d="M1243 618 c2 -7 10 -68 17 -135 15 -134 12 -147 -39 -158 -24 -5 -26
-9 -23 -41 4 -34 6 -35 36 -28 17 3 44 14 59 23 35 20 105 123 171 251 l48 95
-42 3 c-24 2 -46 0 -49 -5 -4 -4 -15 -33 -25 -63 -10 -31 -26 -67 -37 -80
l-19 -25 0 88 0 87 -51 0 c-37 0 -50 -4 -46 -12z"/>
<path d="M828 275 c-5 -23 -2 -25 31 -25 l35 0 -51 -52 c-28 -29 -53 -63 -56
-75 -5 -22 -3 -23 79 -23 46 0 84 4 84 9 0 5 3 16 6 25 4 11 -3 15 -35 18
l-40 3 48 55 c75 87 75 90 -18 90 -76 0 -79 -1 -83 -25z"/>
</g>
</svg>
